<?xml version="1.0" standalone="no"?>
<!DOCTYPE svg PUBLIC "-//W3C//DTD SVG 20010904//EN"
 "http://www.w3.org/TR/2001/REC-SVG-20010904/DTD/svg10.dtd">
<svg version="1.0" xmlns="http://www.w3.org/2000/svg"
 width="260.000000pt" height="260.000000pt" viewBox="0 0 260.000000 260.000000"
 preserveAspectRatio="xMidYMid meet">
<metadata>
Created by potrace 1.11, written by Peter Selinger 2001-2013
</metadata>
<g transform="translate(0.000000,260.000000) scale(0.100000,-0.100000)"
fill="#000000" stroke="none">
<path d="M1360 2264 c-25 -13 -56 -26 -70 -29 -13 -3 -40 -12 -59 -21 -20 -10
-48 -19 -64 -20 -15 -2 -41 -11 -57 -19 -17 -9 -35 -13 -40 -10 -6 3 -10 -1
-10 -9 0 -9 -3 -15 -8 -13 -12 4 -152 -56 -152 -65 0 -5 -4 -7 -10 -3 -5 3
-26 -2 -47 -11 -21 -9 -49 -17 -63 -19 -14 -1 -55 -16 -92 -33 -38 -17 -68
-28 -68 -26 0 3 -12 -4 -26 -15 -34 -27 -64 -27 -65 -1 -1 11 -2 30 -3 43 -1
12 4 30 12 39 13 15 11 23 -12 62 -38 66 -86 84 -132 51 -18 -12 -22 -29 -28
-102 -8 -107 -27 -203 -39 -203 -7 0 -62 -35 -137 -88 -2 -1 -4 -20 -4 -42 0
-44 28 -83 53 -75 9 2 33 7 54 11 34 5 38 3 33 -13 -2 -10 -8 -43 -11 -73 -11
-105 -26 -205 -37 -241 -8 -27 -18 -39 -44 -48 -70 -25 -78 -117 -13 -140 17
-6 28 -14 26 -18 -3 -5 -8 -35 -12 -68 -12 -104 -15 -128 -26 -189 -6 -32 -8
-64 -5 -72 3 -7 1 -16 -5 -19 -5 -4 -9 -29 -8 -56 1 -27 0 -52 -3 -55 -4 -3
-2 -20 3 -37 5 -18 11 -54 14 -80 3 -27 8 -53 11 -59 4 -6 8 -25 9 -43 3 -47
35 -105 78 -139 33 -27 47 -31 95 -31 54 1 142 30 142 47 0 4 15 15 33 24 17
10 37 22 42 29 6 6 46 42 90 81 44 38 85 76 92 84 7 8 13 11 13 6 0 -5 26 15
58 43 31 29 64 58 72 66 8 7 35 23 60 36 25 13 49 29 53 36 4 7 29 25 55 40
26 15 59 36 73 48 24 19 25 23 15 64 l-11 43 -53 3 c-40 3 -55 0 -59 -12 -3
-8 -20 -24 -38 -36 -40 -27 -185 -136 -205 -154 -61 -54 -140 -135 -140 -143
0 -5 -9 -10 -19 -10 -11 0 -48 -27 -83 -60 -70 -67 -146 -110 -192 -110 -27 0
-35 7 -59 49 -37 66 -57 204 -44 296 3 22 9 76 12 120 4 44 8 91 10 105 3 14
7 43 11 65 3 22 14 60 25 85 16 37 29 50 72 71 57 29 108 48 147 56 22 4 46
13 115 43 11 5 47 16 80 24 33 8 80 22 105 30 195 64 304 96 323 96 12 0 30
12 40 25 16 22 16 28 4 57 -21 49 -41 63 -74 50 -31 -11 -77 -23 -108 -27 -12
-2 -50 -10 -85 -20 -36 -9 -74 -18 -85 -21 -11 -2 -36 -10 -55 -17 -19 -8 -64
-24 -100 -35 -36 -11 -90 -30 -120 -41 -30 -11 -84 -29 -120 -39 -36 -11 -73
-23 -82 -27 -15 -6 -17 0 -14 53 2 33 7 66 11 73 5 6 7 26 7 43 -1 17 5 45 13
61 7 17 19 60 25 97 7 40 19 73 30 83 17 16 235 111 365 160 33 12 76 29 95
37 19 9 73 32 120 52 47 21 98 44 113 52 16 7 33 14 39 14 6 0 29 9 52 19 94
44 142 59 169 54 16 -3 27 -1 27 6 0 6 11 11 25 11 59 0 10 105 -53 115 -16 2
-45 -6 -72 -21z"/>
<path d="M2242 2236 c-8 -19 -6 -33 13 -73 52 -108 69 -315 49 -618 -3 -55 -6
-118 -6 -140 0 -22 -4 -45 -9 -50 -4 -6 -9 -51 -12 -100 -6 -129 -19 -181 -58
-237 -24 -34 -49 -31 -90 11 -14 14 -50 48 -81 74 -43 38 -66 68 -99 135 -23
48 -46 94 -51 102 -4 8 -12 26 -18 40 -5 14 -16 36 -25 50 -28 48 -57 115 -82
195 -14 44 -32 92 -39 106 -8 15 -16 44 -18 65 -7 54 -67 198 -96 229 -19 20
-33 26 -60 24 -19 -2 -41 -7 -48 -12 -14 -11 -15 -84 -1 -132 27 -98 30 -421
4 -570 -3 -16 -9 -65 -14 -108 -5 -42 -16 -107 -25 -145 -35 -152 -42 -192
-35 -204 4 -6 1 -24 -7 -39 -17 -35 -44 -224 -37 -262 4 -22 10 -27 27 -25 13
1 35 -5 49 -15 27 -17 28 -17 51 8 21 23 24 35 23 87 -1 33 1 62 5 64 5 3 3
14 -3 25 -10 19 -3 108 15 204 8 43 22 141 30 207 3 21 10 47 16 58 6 12 13
54 16 93 8 140 19 227 29 230 10 2 92 -153 98 -184 1 -9 10 -27 18 -40 8 -13
21 -40 29 -59 8 -19 29 -57 47 -84 18 -26 33 -53 33 -58 0 -6 8 -18 18 -27 10
-9 32 -36 49 -60 35 -48 120 -124 165 -147 45 -23 107 -26 147 -6 49 24 105
130 120 225 6 40 14 90 17 112 10 64 16 241 18 517 1 257 1 257 22 252 36 -9
37 40 3 115 -16 35 -29 70 -29 77 0 22 -49 72 -93 93 -55 27 -61 26 -75 -3z"/>
</g>
</svg>
