<?xml version="1.0" standalone="no"?>
<!DOCTYPE svg PUBLIC "-//W3C//DTD SVG 20010904//EN"
 "http://www.w3.org/TR/2001/REC-SVG-20010904/DTD/svg10.dtd">
<svg version="1.0" xmlns="http://www.w3.org/2000/svg"
 width="260.000000pt" height="260.000000pt" viewBox="0 0 260.000000 260.000000"
 preserveAspectRatio="xMidYMid meet">
<metadata>
Created by potrace 1.11, written by Peter Selinger 2001-2013
</metadata>
<g transform="translate(0.000000,260.000000) scale(0.100000,-0.100000)"
fill="#000000" stroke="none">
<path d="M1045 2580 c-261 -52 -474 -167 -666 -359 -257 -258 -379 -553 -379
-921 0 -368 122 -663 379 -921 258 -257 553 -379 921 -379 368 0 663 122 921
379 257 258 379 553 379 921 0 368 -122 663 -379 921 -195 195 -407 308 -673
360 -132 25 -374 25 -503 -1z m1174 -828 c52 -73 91 -288 91 -499 0 -146 -10
-191 -50 -236 -27 -31 -31 -32 -107 -32 -66 1 -87 5 -133 29 -79 40 -178 117
-323 249 -83 76 -132 114 -142 111 -19 -8 -20 -65 -3 -231 12 -118 11 -124 -9
-150 -39 -53 -122 -56 -141 -6 -14 35 -32 326 -32 506 0 121 2 137 21 161 16
21 29 26 63 26 58 0 92 -26 305 -232 244 -236 336 -301 376 -268 36 30 7 288
-50 453 -30 87 -25 109 28 132 51 23 83 19 106 -13z m-979 -51 c16 -31 12 -79
-9 -100 -11 -11 -37 -24 -58 -30 -98 -28 -274 -62 -433 -86 -265 -38 -244 -31
-248 -89 -5 -74 3 -96 35 -96 15 0 122 22 237 49 273 64 283 66 301 51 20 -17
29 -74 16 -99 -14 -25 -44 -34 -315 -97 -138 -32 -210 -53 -214 -63 -9 -24 53
-69 130 -93 64 -20 94 -23 238 -23 197 0 213 5 204 65 -5 33 -2 42 19 64 47
47 104 47 150 0 22 -22 27 -36 27 -75 0 -82 -70 -141 -216 -180 -64 -18 -108
-22 -234 -22 -269 -1 -389 49 -487 201 -31 49 -37 53 -63 47 -37 -8 -70 23
-70 65 0 29 11 44 58 82 19 15 21 24 16 85 -3 37 -13 85 -21 106 -13 31 -14
44 -4 77 21 70 62 83 206 65 54 -7 297 31 540 84 160 36 181 37 195 12z"/>
</g>
</svg>
